<svg width="36" height="32" viewBox="0 0 36 32" fill="none" xmlns="http://www.w3.org/2000/svg">
<path d="M35.8145 25.2297L29.8717 31.5642C29.7425 31.7018 29.5862 31.8115 29.4125 31.8865C29.2388 31.9615 29.0515 32.0001 28.8621 32H0.689927C0.555502 32 0.424007 31.961 0.311597 31.8877C0.199187 31.8144 0.110759 31.7101 0.057178 31.5876C0.00359725 31.4651 -0.0128025 31.3297 0.00999381 31.198C0.0327901 31.0663 0.0937894 30.9442 0.185497 30.8465L6.13286 24.512C6.2617 24.3748 6.41752 24.2653 6.59065 24.1903C6.76379 24.1154 6.95057 24.0765 7.13942 24.0762H35.3101C35.4445 24.0762 35.576 24.1152 35.6884 24.1885C35.8008 24.2618 35.8892 24.3661 35.9428 24.4886C35.9964 24.6111 36.0128 24.7465 35.99 24.8782C35.9672 25.0099 35.9062 25.132 35.8145 25.2297ZM29.8717 12.4739C29.7425 12.3363 29.5862 12.2266 29.4125 12.1516C29.2388 12.0766 29.0515 12.038 28.8621 12.0381H0.689927C0.555502 12.0381 0.424007 12.0771 0.311597 12.1504C0.199187 12.2237 0.110759 12.328 0.057178 12.4505C0.00359725 12.573 -0.0128025 12.7084 0.00999381 12.8401C0.0327901 12.9718 0.0937894 13.0939 0.185497 13.1916L6.13286 19.5261C6.2617 19.6633 6.41752 19.7728 6.59065 19.8478C6.76379 19.9227 6.95057 19.9616 7.13942 19.9619H35.3101C35.4445 19.9619 35.576 19.9229 35.6884 19.8496C35.8008 19.7763 35.8892 19.672 35.9428 19.5495C35.9964 19.427 36.0128 19.2916 35.99 19.1599C35.9672 19.0282 35.9062 18.9061 35.8145 18.8084L29.8717 12.4739ZM0.689927 7.92381H28.8621C29.0515 7.92391 29.2388 7.88527 29.4125 7.81029C29.5862 7.73531 29.7425 7.62561 29.8717 7.488L35.8145 1.15352C35.9062 1.05584 35.9672 0.933665 35.99 0.802001C36.0128 0.670336 35.9964 0.534921 35.9428 0.412393C35.8892 0.289865 35.8008 0.185562 35.6884 0.112299C35.576 0.0390362 35.4445 4.5118e-06 35.3101 0L7.13942 0C6.95057 0.000319417 6.76379 0.0391633 6.59065 0.114127C6.41752 0.18909 6.2617 0.298577 6.13286 0.43581L0.18703 6.77029C0.0954111 6.86787 0.0344387 6.98991 0.0115907 7.12143C-0.0112573 7.25296 0.00501234 7.38825 0.0584043 7.51072C0.111796 7.63319 0.199989 7.73751 0.312168 7.81088C0.424346 7.88426 0.555633 7.92351 0.689927 7.92381Z" fill="url(#paint0_linear_55_225)"/>
<defs>
<linearGradient id="paint0_linear_55_225" x1="3.03882" y1="32.7627" x2="32.379" y2="-0.516142" gradientUnits="userSpaceOnUse">
<stop offset="0.08" stop-color="#9945FF"/>
<stop offset="0.3" stop-color="#8752F3"/>
<stop offset="0.5" stop-color="#5497D5"/>
<stop offset="0.6" stop-color="#43B4CA"/>
<stop offset="0.72" stop-color="#28E0B9"/>
<stop offset="0.97" stop-color="#19FB9B"/>
</linearGradient>
</defs>
</svg>
