<svg width="242" height="36" viewBox="0 0 242 36" fill="none" xmlns="http://www.w3.org/2000/svg">
<g clip-path="url(#clip0_4_607)">
<path d="M40.92 28.3801L34.27 35.5101C34.1251 35.6646 33.9501 35.7879 33.7558 35.8721C33.5614 35.9564 33.3518 36 33.14 36.0001H1.65C1.49845 36.0024 1.34961 35.9598 1.22212 35.8779C1.09462 35.7959 0.994154 35.6782 0.933293 35.5394C0.872432 35.4006 0.853889 35.2469 0.879985 35.0976C0.906082 34.9483 0.975659 34.81 1.08 34.7001L7.73 27.5801C7.87334 27.4236 8.04806 27.2991 8.24277 27.2146C8.43747 27.1302 8.64779 27.0878 8.86 27.0901H40.35C40.4996 27.0897 40.6461 27.1328 40.7715 27.2143C40.897 27.2958 40.996 27.4121 41.0564 27.5489C41.1169 27.6857 41.1362 27.8372 41.1119 27.9848C41.0877 28.1324 41.021 28.2698 40.92 28.3801ZM34.27 14.0001C34.1251 13.8455 33.9501 13.7223 33.7558 13.638C33.5614 13.5538 33.3518 13.5102 33.14 13.5101H1.65C1.49845 13.5078 1.34961 13.5503 1.22212 13.6323C1.09462 13.7142 0.994154 13.832 0.933293 13.9708C0.872432 14.1096 0.853889 14.2633 0.879985 14.4126C0.906082 14.5619 0.975659 14.7002 1.08 14.8101L7.73 22.0001C7.87487 22.1546 8.04988 22.2779 8.24424 22.3621C8.43859 22.4464 8.64816 22.49 8.86 22.4901H40.35C40.5015 22.4924 40.6504 22.4498 40.7779 22.3679C40.9054 22.2859 41.0058 22.1682 41.0667 22.0294C41.1276 21.8906 41.1461 21.7369 41.12 21.5876C41.0939 21.4383 41.0243 21.3 40.92 21.1901L34.27 14.0001ZM1.65 8.91009H33.14C33.3522 8.91241 33.5625 8.86997 33.7572 8.78554C33.9519 8.70111 34.1267 8.57658 34.27 8.42009L40.92 1.30009C41.0243 1.19016 41.0939 1.05188 41.12 0.902583C41.1461 0.753285 41.1276 0.599606 41.0667 0.4608C41.0058 0.321995 40.9054 0.204238 40.7779 0.122283C40.6504 0.0403277 40.5015 -0.00217986 40.35 8.60954e-05H8.86C8.64816 0.000207028 8.43859 0.0437504 8.24424 0.128028C8.04988 0.212305 7.87487 0.335527 7.73 0.490086L1.08 7.62009C0.978976 7.73041 0.912277 7.86777 0.888051 8.01538C0.863824 8.163 0.883119 8.31447 0.943576 8.45129C1.00403 8.58812 1.10304 8.70437 1.22849 8.78585C1.35394 8.86733 1.50041 8.9105 1.65 8.91009Z" fill="url(#paint0_linear_4_607)"/>
<path d="M79.12 15.2H62.28V9.6H83.48V4H62.23C61.5003 4 60.7778 4.14388 60.1038 4.42342C59.4298 4.70296 58.8175 5.11267 58.302 5.62909C57.7865 6.14552 57.3779 6.75852 57.0996 7.43304C56.8213 8.10755 56.6787 8.83032 56.68 9.56V15.24C56.6787 15.9697 56.8213 16.6925 57.0996 17.367C57.3779 18.0415 57.7865 18.6545 58.302 19.1709C58.8175 19.6873 59.4298 20.097 60.1038 20.3766C60.7778 20.6561 61.5003 20.8 62.23 20.8H79.08V26.4H57.08V32H79.08C80.5546 32 81.9688 31.4142 83.0115 30.3715C84.0542 29.3288 84.64 27.9146 84.64 26.44V20.76C84.64 19.2923 84.0597 17.8841 83.0257 16.8426C81.9916 15.801 80.5877 15.2106 79.12 15.2Z" fill="white"/>
<path d="M111.7 4H94.82C93.3454 4 91.9312 4.58578 90.8885 5.62849C89.8458 6.67119 89.26 8.0854 89.26 9.56V26.44C89.26 27.9146 89.8458 29.3288 90.8885 30.3715C91.9312 31.4142 93.3454 32 94.82 32H111.7C113.175 32 114.589 31.4142 115.632 30.3715C116.674 29.3288 117.26 27.9146 117.26 26.44V9.56C117.26 8.0854 116.674 6.67119 115.632 5.62849C114.589 4.58578 113.175 4 111.7 4ZM111.7 26.4H94.86V9.6H111.66L111.7 26.4Z" fill="white"/>
<path d="M170.87 4H154.39C152.915 4 151.501 4.58578 150.458 5.62849C149.416 6.67119 148.83 8.0854 148.83 9.56V32H154.43V22.8H170.83V32H176.43V9.56C176.43 8.0854 175.844 6.67119 174.802 5.62849C173.759 4.58578 172.345 4 170.87 4ZM170.87 17.2H154.47V9.6H170.87V17.2Z" fill="white"/>
<path d="M236.44 4H220C218.525 4 217.111 4.58578 216.068 5.62849C215.026 6.67119 214.44 8.0854 214.44 9.56V32H220V22.8H236.4V32H242V9.56C242 8.82985 241.856 8.10685 241.577 7.43228C241.297 6.75771 240.888 6.14478 240.372 5.62849C239.855 5.11219 239.242 4.70265 238.568 4.42323C237.893 4.14381 237.17 4 236.44 4ZM236.44 17.2H220V9.6H236.4L236.44 17.2Z" fill="white"/>
<path d="M203.82 26.4001H201.58L193.58 6.33009C193.303 5.63802 192.823 5.04556 192.204 4.62994C191.585 4.21432 190.856 3.99483 190.11 4.00009H185.11C184.128 4.00274 183.187 4.39478 182.493 5.09026C181.8 5.78573 181.41 6.72787 181.41 7.71009V32.0001H187V9.60009H189.24L197.24 29.6701C197.52 30.3646 198.002 30.9585 198.625 31.3742C199.248 31.7899 199.981 32.008 200.73 32.0001H205.73C206.217 32.0001 206.7 31.9041 207.15 31.7177C207.6 31.5312 208.009 31.258 208.353 30.9135C208.698 30.569 208.971 30.16 209.158 29.7098C209.344 29.2597 209.44 28.7773 209.44 28.2901V4.00009H203.84L203.82 26.4001Z" fill="white"/>
<path d="M127.85 4H122.25V26.44C122.25 27.9146 122.836 29.3288 123.878 30.3715C124.921 31.4142 126.335 32 127.81 32H144.65V26.4H127.85V4Z" fill="white"/>
</g>
<defs>
<linearGradient id="paint0_linear_4_607" x1="4.27" y1="36.8601" x2="37.3" y2="-0.379916" gradientUnits="userSpaceOnUse">
<stop offset="0.08" stop-color="#9945FF"/>
<stop offset="0.3" stop-color="#8752F3"/>
<stop offset="0.5" stop-color="#5497D5"/>
<stop offset="0.6" stop-color="#43B4CA"/>
<stop offset="0.72" stop-color="#28E0B9"/>
<stop offset="0.97" stop-color="#19FB9B"/>
</linearGradient>
<clipPath id="clip0_4_607">
<rect width="242" height="36" fill="white"/>
</clipPath>
</defs>
</svg>
