<svg width="484" height="72" viewBox="0 0 484 72" fill="none" xmlns="http://www.w3.org/2000/svg">
<g clip-path="url(#clip0_4_591)">
<path d="M81.84 56.77L68.55 71C68.2609 71.3113 67.9114 71.5606 67.5229 71.7325C67.1343 71.9044 66.7149 71.9954 66.29 72H3.29C2.98973 71.998 2.6965 71.9089 2.44594 71.7434C2.19538 71.5779 1.99828 71.3432 1.8786 71.0679C1.75891 70.7925 1.72179 70.4883 1.77174 70.1922C1.8217 69.8961 1.95658 69.6209 2.16 69.4L15.45 55.15C15.7391 54.8387 16.0886 54.5894 16.4771 54.4175C16.8657 54.2456 17.2851 54.1546 17.71 54.15H80.71C81.0142 54.1483 81.3122 54.2362 81.5668 54.4026C81.8214 54.5691 82.0214 54.8068 82.1419 55.0861C82.2623 55.3655 82.298 55.674 82.2443 55.9735C82.1906 56.2729 82.05 56.5499 81.84 56.77ZM68.55 28.07C68.262 27.7572 67.9128 27.5071 67.524 27.3351C67.1352 27.163 66.7151 27.0728 66.29 27.07H3.29C2.98973 27.0693 2.69581 27.1564 2.44442 27.3206C2.19302 27.4848 1.9951 27.719 1.87503 27.9942C1.75496 28.2694 1.71796 28.5737 1.76859 28.8697C1.81922 29.1656 1.95527 29.4403 2.16 29.66L15.45 43.93C15.738 44.2427 16.0872 44.4929 16.476 44.6649C16.8648 44.837 17.2849 44.9272 17.71 44.93H80.71C81.0103 44.9307 81.3042 44.8436 81.5556 44.6794C81.807 44.5152 82.0049 44.2811 82.125 44.0058C82.245 43.7306 82.282 43.4263 82.2314 43.1303C82.1808 42.8344 82.0447 42.5597 81.84 42.34L68.55 28.07ZM3.29 17.83H66.29C66.7149 17.8254 67.1343 17.7344 67.5229 17.5625C67.9114 17.3906 68.2609 17.1413 68.55 16.83L81.84 2.6C82.0434 2.37913 82.1783 2.10392 82.2283 1.80784C82.2782 1.51175 82.2411 1.20753 82.1214 0.932141C82.0017 0.656754 81.8046 0.422061 81.5541 0.256582C81.3035 0.0911036 81.0103 0.0019653 80.71 0L17.71 0C17.2851 0.004566 16.8657 0.0955824 16.4771 0.267504C16.0886 0.439425 15.7391 0.688652 15.45 1L2.16 15.23C1.95658 15.4509 1.8217 15.7261 1.77174 16.0222C1.72179 16.3182 1.75891 16.6225 1.8786 16.8979C1.99828 17.1732 2.19538 17.4079 2.44594 17.5734C2.6965 17.7389 2.98973 17.828 3.29 17.83Z" fill="url(#paint0_linear_4_591)"/>
<path d="M158.23 30.4H124.55V19.2H167V8H124.47C121.521 8 118.692 9.17157 116.607 11.257C114.522 13.3424 113.35 16.1708 113.35 19.12V30.48C113.35 31.9403 113.638 33.3863 114.196 34.7354C114.755 36.0846 115.574 37.3104 116.607 38.343C118.692 40.4284 121.521 41.6 124.47 41.6H158.15V52.8H114.15V64H158.23C161.179 64 164.008 62.8284 166.093 60.743C168.178 58.6576 169.35 55.8292 169.35 52.88V41.52C169.35 40.0597 169.062 38.6137 168.504 37.2646C167.945 35.9154 167.126 34.6896 166.093 33.657C165.06 32.6244 163.835 31.8053 162.485 31.2465C161.136 30.6876 159.69 30.4 158.23 30.4Z" fill="white"/>
<path d="M223.41 8H189.64C186.691 8 183.862 9.17157 181.777 11.257C179.692 13.3424 178.52 16.1708 178.52 19.12V52.88C178.52 55.8292 179.692 58.6576 181.777 60.743C183.862 62.8284 186.691 64 189.64 64H223.41C224.87 64 226.315 63.7123 227.664 63.1533C229.013 62.5944 230.238 61.7751 231.27 60.7424C232.301 59.7097 233.119 58.4838 233.677 57.1347C234.235 55.7856 234.521 54.3398 234.52 52.88V19.12C234.521 17.6602 234.235 16.2144 233.677 14.8653C233.119 13.5162 232.301 12.2903 231.27 11.2576C230.238 10.2249 229.013 9.40561 227.664 8.84665C226.315 8.2877 224.87 8 223.41 8ZM223.32 52.8H189.72V19.2H223.32V52.8Z" fill="white"/>
<path d="M341.74 8H308.74C307.28 8 305.834 8.28763 304.485 8.84646C303.135 9.40529 301.91 10.2244 300.877 11.257C299.844 12.2896 299.025 13.5154 298.466 14.8646C297.908 16.2137 297.62 17.6597 297.62 19.12V64H308.82V45.6H341.62V64H352.82V19.12C352.82 16.1777 351.654 13.3553 349.577 11.2711C347.5 9.18682 344.682 8.01058 341.74 8ZM341.66 34.4H308.86V19.2H341.66V34.4Z" fill="white"/>
<path d="M472.88 8H439.88C436.938 8.01058 434.12 9.18682 432.043 11.2711C429.966 13.3553 428.8 16.1777 428.8 19.12V64H440V45.6H472.8V64H484V19.12C484 17.6597 483.712 16.2137 483.154 14.8646C482.595 13.5154 481.776 12.2896 480.743 11.257C479.71 10.2244 478.485 9.40529 477.135 8.84646C475.786 8.28763 474.34 8 472.88 8ZM472.8 34.4H440V19.2H472.8V34.4Z" fill="white"/>
<path d="M407.63 52.8001H403.15L387.15 12.6601C386.594 11.2768 385.635 10.0926 384.398 9.26157C383.16 8.43051 381.701 7.99099 380.21 8.00014H370.21C368.245 8.00014 366.36 8.78083 364.97 10.1705C363.581 11.5601 362.8 13.4449 362.8 15.4101V64.0001H374V19.2001H378.48L394.54 59.3401C395.092 60.7203 396.045 61.9027 397.278 62.7337C398.51 63.5647 399.964 64.006 401.45 64.0001H411.45C412.423 64.0001 413.387 63.8085 414.286 63.4361C415.185 63.0637 416.002 62.5179 416.69 61.8298C417.378 61.1417 417.924 60.3248 418.296 59.4258C418.668 58.5268 418.86 57.5632 418.86 56.5901V8.00014H407.66L407.63 52.8001Z" fill="white"/>
<path d="M255.69 8H244.49V52.88C244.49 55.8292 245.662 58.6576 247.747 60.743C249.832 62.8284 252.661 64 255.61 64H289.29V52.8H255.69V8Z" fill="white"/>
</g>
<defs>
<linearGradient id="paint0_linear_4_591" x1="8.54" y1="73.72" x2="74.61" y2="-0.759998" gradientUnits="userSpaceOnUse">
<stop offset="0.08" stop-color="#9945FF"/>
<stop offset="0.3" stop-color="#8752F3"/>
<stop offset="0.5" stop-color="#5497D5"/>
<stop offset="0.6" stop-color="#43B4CA"/>
<stop offset="0.72" stop-color="#28E0B9"/>
<stop offset="0.97" stop-color="#19FB9B"/>
</linearGradient>
<clipPath id="clip0_4_591">
<rect width="484" height="72" fill="white"/>
</clipPath>
</defs>
</svg>
