<svg width="323" height="48" viewBox="0 0 323 48" fill="none" xmlns="http://www.w3.org/2000/svg">
<g clip-path="url(#clip0_4_746)">
<g clip-path="url(#clip1_4_746)">
<path d="M54.27 37.8398L45.41 47.3498C45.215 47.5541 44.9807 47.717 44.7212 47.8287C44.4618 47.9404 44.1825 47.9986 43.9 47.9998H1.89999C1.6937 48.0141 1.48805 47.9641 1.31136 47.8566C1.13467 47.7492 0.995631 47.5897 0.913381 47.3999C0.831131 47.2102 0.809719 46.9997 0.852093 46.7973C0.894466 46.5949 0.998541 46.4106 1.14999 46.2698L9.99999 36.7698C10.1931 36.5622 10.4267 36.3966 10.6865 36.283C10.9462 36.1695 11.2265 36.1105 11.51 36.1098H53.51C53.7171 36.0932 53.9243 36.1415 54.1027 36.2481C54.2812 36.3546 54.4219 36.5141 54.5055 36.7044C54.5891 36.8946 54.6113 37.1062 54.5691 37.3097C54.5269 37.5132 54.4224 37.6985 54.27 37.8398ZM45.41 18.7098C45.2164 18.5036 44.9824 18.3395 44.7226 18.2276C44.4628 18.1158 44.1828 18.0587 43.9 18.0598H1.89999C1.6937 18.0455 1.48805 18.0955 1.31136 18.2029C1.13467 18.3104 0.995631 18.4699 0.913381 18.6596C0.831131 18.8494 0.809719 19.0599 0.852093 19.2623C0.894466 19.4647 0.998541 19.649 1.14999 19.7898L9.99999 29.2898C10.1936 29.496 10.4276 29.6601 10.6873 29.7719C10.9471 29.8838 11.2272 29.9409 11.51 29.9398H53.51C53.7171 29.9564 53.9243 29.9081 54.1027 29.8015C54.2812 29.695 54.4219 29.5355 54.5055 29.3452C54.5891 29.1549 54.6113 28.9433 54.5691 28.7399C54.5269 28.5364 54.4224 28.3511 54.27 28.2098L45.41 18.7098ZM1.89999 11.8898H43.9C44.1835 11.889 44.4638 11.8301 44.7235 11.7165C44.9832 11.603 45.2169 11.4373 45.41 11.2298L54.27 1.72979C54.4224 1.58847 54.5269 1.40319 54.5691 1.19971C54.6113 0.996223 54.5891 0.784643 54.5055 0.594376C54.4219 0.40411 54.2812 0.244611 54.1027 0.138051C53.9243 0.0314908 53.7171 -0.0168364 53.51 -0.000212734H11.51C11.2275 0.00100653 10.9482 0.0592007 10.6887 0.170887C10.4293 0.282573 10.195 0.445456 9.99999 0.649787L1.14999 10.1598C0.998541 10.3006 0.894466 10.4849 0.852093 10.6873C0.809719 10.8897 0.831131 11.1002 0.913381 11.2899C0.995631 11.4797 1.13467 11.6392 1.31136 11.7466C1.48805 11.8541 1.6937 11.9041 1.89999 11.8898Z" fill="url(#paint0_linear_4_746)"/>
<path d="M105.47 20.3001H83V12.9001H111.31V5.50011H82.93C81.9595 5.49484 80.9975 5.68078 80.0989 6.0473C79.2003 6.41383 78.3827 6.95376 77.6927 7.63627C77.0028 8.31879 76.454 9.13051 76.0778 10.0251C75.7016 10.9197 75.5052 11.8796 75.5 12.8501V20.3501C75.5052 21.3206 75.7016 22.2805 76.0778 23.1751C76.454 24.0697 77.0028 24.8814 77.6927 25.5639C78.3827 26.2465 79.2003 26.7864 80.0989 27.1529C80.9975 27.5194 81.9595 27.7054 82.93 27.7001H105.42V35.1001H76V42.5001H105.44C106.41 42.5054 107.372 42.3194 108.27 41.9527C109.168 41.5861 109.985 41.046 110.674 40.3633C111.363 39.6807 111.911 38.8689 112.286 37.9744C112.661 37.0798 112.856 36.1201 112.86 35.1501V27.6501C112.852 25.6963 112.07 23.8253 110.684 22.4475C109.299 21.0697 107.424 20.2974 105.47 20.3001Z" fill="black"/>
<path d="M149 5.49976H126.45C125.478 5.49185 124.514 5.67584 123.613 6.04118C122.712 6.40652 121.892 6.94603 121.2 7.6288C120.508 8.31158 119.957 9.1242 119.58 10.0201C119.202 10.916 119.005 11.8776 119 12.8498V35.1498C119.005 36.1202 119.202 37.0802 119.578 37.9748C119.954 38.8694 120.503 39.6811 121.193 40.3636C121.883 41.0461 122.7 41.586 123.599 41.9526C124.498 42.3191 125.46 42.505 126.43 42.4998H149C149.97 42.505 150.932 42.319 151.83 41.9524C152.728 41.5857 153.545 41.0456 154.234 40.363C154.923 39.6803 155.471 38.8685 155.846 37.974C156.221 37.0795 156.416 36.1198 156.42 35.1498V12.8498C156.416 11.8798 156.221 10.92 155.846 10.0255C155.471 9.13097 154.923 8.31917 154.234 7.63653C153.545 6.95388 152.728 6.41379 151.83 6.04715C150.932 5.6805 149.97 5.49449 149 5.49976ZM148.95 35.0998H126.5V12.8998H148.94L148.95 35.0998Z" fill="black"/>
<path d="M228 5.50019H206C205.03 5.49492 204.068 5.68086 203.169 6.04738C202.27 6.41391 201.453 6.95384 200.763 7.63635C200.073 8.31887 199.524 9.1306 199.148 10.0252C198.772 10.9198 198.575 11.8797 198.57 12.8502V42.5002H206.05V30.3402H228V42.5002H235.48V12.8502C235.476 11.8751 235.279 10.9104 234.9 10.0119C234.521 9.11345 233.968 8.29896 233.273 7.61552C232.577 6.93209 231.753 6.39326 230.848 6.03018C229.943 5.6671 228.975 5.48697 228 5.50019ZM228 22.9402H206.1V12.9402H228V22.9402Z" fill="black"/>
<path d="M315.57 5.50011H293.57C292.6 5.49484 291.638 5.68078 290.739 6.0473C289.84 6.41383 289.023 6.95376 288.333 7.63627C287.643 8.31879 287.094 9.13051 286.718 10.0251C286.342 10.9197 286.145 11.8796 286.14 12.8501V42.5001H293.62V30.3401H315.52V42.5001H323V12.8501C322.995 11.8796 322.798 10.9197 322.422 10.0251C322.046 9.13051 321.497 8.31879 320.807 7.63627C320.117 6.95376 319.3 6.41383 318.401 6.0473C317.502 5.68078 316.54 5.49484 315.57 5.50011ZM315.52 22.9401H293.62V12.9401H315.52V22.9401Z" fill="black"/>
<path d="M272 35.1H269L258.29 8.58004C257.919 7.66757 257.284 6.88678 256.466 6.33796C255.648 5.78914 254.685 5.49734 253.7 5.50004H247C245.694 5.49472 244.44 6.00767 243.512 6.92631C242.584 7.84496 242.058 9.09426 242.05 10.4V42.5H249.53V12.9H252.53L263.25 39.42C263.628 40.3294 264.266 41.1068 265.085 41.6548C265.903 42.2027 266.865 42.4968 267.85 42.5H274.5C275.151 42.5106 275.798 42.3919 276.403 42.1506C277.008 41.9094 277.559 41.5504 278.024 41.0946C278.489 40.6388 278.859 40.0952 279.112 39.4953C279.366 38.8955 279.497 38.2512 279.5 37.6V5.50004H272V35.1Z" fill="black"/>
<path d="M170.55 5.5H163.07V35.15C163.075 36.1205 163.272 37.0804 163.648 37.975C164.024 38.8696 164.573 39.6813 165.263 40.3638C165.953 41.0463 166.77 41.5863 167.669 41.9528C168.568 42.3193 169.53 42.5053 170.5 42.5H193V35.1H170.55V5.5Z" fill="black"/>
</g>
</g>
<defs>
<linearGradient id="paint0_linear_4_746" x1="5.39999" y1="49.1398" x2="49.45" y2="-0.510214" gradientUnits="userSpaceOnUse">
<stop offset="0.08" stop-color="#9945FF"/>
<stop offset="0.3" stop-color="#8752F3"/>
<stop offset="0.5" stop-color="#5497D5"/>
<stop offset="0.6" stop-color="#43B4CA"/>
<stop offset="0.72" stop-color="#28E0B9"/>
<stop offset="0.97" stop-color="#19FB9B"/>
</linearGradient>
<clipPath id="clip0_4_746">
<rect width="323" height="48" fill="white"/>
</clipPath>
<clipPath id="clip1_4_746">
<rect width="323" height="48" fill="white"/>
</clipPath>
</defs>
</svg>
