<svg width="500" height="76" viewBox="0 0 500 76" fill="none" xmlns="http://www.w3.org/2000/svg">
<g clip-path="url(#clip0_4_2299)">
<path d="M71.6899 15.57V0.459961H14.3799C10.4016 0.459961 6.58633 2.04031 3.77328 4.85336C0.960235 7.6664 -0.620117 11.4817 -0.620117 15.46V30.79C-0.620117 34.7682 0.960235 38.5835 3.77328 41.3966C6.58633 44.2096 10.4016 45.79 14.3799 45.79H59.8099V60.89H0.459883V76H59.9199C63.8981 76 67.7134 74.4196 70.5265 71.6066C73.3395 68.7935 74.9199 64.9782 74.9199 61V45.68C74.9199 41.7017 73.3395 37.8864 70.5265 35.0734C67.7134 32.2603 63.8981 30.68 59.9199 30.68H14.4899V15.57H71.6899Z" fill="#9945FF"/>
<path d="M87.2998 15.46V61C87.2998 64.9782 88.8802 68.7935 91.6932 71.6066C94.5062 74.4196 98.3216 76 102.3 76H147.84C151.818 76 155.633 74.4196 158.446 71.6066C161.259 68.7935 162.84 64.9782 162.84 61V15.46C162.84 11.4817 161.259 7.6664 158.446 4.85336C155.633 2.04031 151.818 0.459961 147.84 0.459961H102.3C98.3216 0.459961 94.5062 2.04031 91.6932 4.85336C88.8802 7.6664 87.2998 11.4817 87.2998 15.46ZM147.73 60.89H102.38V15.57H147.7L147.73 60.89Z" fill="#9945FF"/>
<path d="M248 15.46V76H263.11V51.18H307.37V76H322.47V15.46C322.47 11.4817 320.89 7.6664 318.077 4.85336C315.264 2.04031 311.448 0.459961 307.47 0.459961H263C259.022 0.459961 255.206 2.04031 252.393 4.85336C249.58 7.6664 248 11.4817 248 15.46ZM307.37 36.07H263.12V15.57H307.38L307.37 36.07Z" fill="#9945FF"/>
<path d="M424.92 15.46V76H440V51.18H484.25V76H499.36V15.46C499.36 11.4817 497.78 7.6664 494.967 4.85336C492.153 2.04031 488.338 0.459961 484.36 0.459961H439.92C435.942 0.459961 432.126 2.04031 429.313 4.85336C426.5 7.6664 424.92 11.4817 424.92 15.46ZM484.27 36.07H440V15.57H484.25L484.27 36.07Z" fill="#9945FF"/>
<path d="M396.38 0.459961V60.89H390.38L368.66 6.74996C367.919 4.89434 366.638 3.30338 364.984 2.18224C363.33 1.06111 361.378 0.461226 359.38 0.459961H345.93C343.278 0.459961 340.734 1.51353 338.859 3.38889C336.983 5.26426 335.93 7.8078 335.93 10.46V76H351V15.57H357.05L378.71 69.72C379.453 71.5753 380.736 73.1652 382.392 74.2846C384.048 75.404 386.001 76.0015 388 76H401.45C404.102 76 406.646 74.9464 408.521 73.071C410.396 71.1957 411.45 68.6521 411.45 66V0.459961H396.38Z" fill="#9945FF"/>
<path d="M191.38 60.89V0.459961H176.29V61C176.29 64.9782 177.87 68.7935 180.683 71.6066C183.496 74.4196 187.312 76 191.29 76H236.72V60.89H191.38Z" fill="#9945FF"/>
</g>
<defs>
<clipPath id="clip0_4_2299">
<rect width="500" height="76" fill="white"/>
</clipPath>
</defs>
</svg>
